<svg xmlns="http://www.w3.org/2000/svg" viewBox="0 0 72.43 88"><defs><style>.cls-1,.cls-3,.cls-5{fill:none;stroke-miterlimit:10;}.cls-1{stroke:#000;stroke-width:4px;}.cls-2{fill:#4db5d9;}.cls-3{stroke:#89dac1;}.cls-3,.cls-5{stroke-width:2px;}.cls-4{fill:#fff;}.cls-5{stroke:#4db5d9;}</style></defs><title>Alarm_Clock</title><g id="Layer_2" data-name="Layer 2"><g id="Artwork"><line class="cls-1" x1="63.25" y1="4.29" x2="36.22" y2="45.01"/><line class="cls-1" x1="9.18" y1="4.29" x2="36.22" y2="45.01"/><line class="cls-1" x1="62.55" y1="83.97" x2="55.58" y2="72.66"/><line class="cls-1" x1="9.89" y1="83.97" x2="16.85" y2="72.66"/><path class="cls-2" d="M13.88,1.17,9.18,4.29,4.49,7.41a7,7,0,0,0-2,9.75l10.55-7,10.55-7A7,7,0,0,0,13.88,1.17Z"/><circle class="cls-2" cx="36.22" cy="45.01" r="36.22"/><circle class="cls-3" cx="36.22" cy="45.01" r="30.53"/><circle cx="36.22" cy="45.01" r="24.78"/><rect class="cls-4" x="34.59" y="24.13" width="3.24" height="3.24" transform="translate(28.81 -18.06) rotate(45)"/><rect class="cls-4" x="15.33" y="43.39" width="3.24" height="3.24" transform="translate(-26.86 25.17) rotate(-45)"/><circle cx="36.21" cy="45.01" r="6.52"/><line class="cls-5" x1="36.21" y1="45.01" x2="24.57" y2="33.37"/><circle class="cls-2" cx="36.21" cy="45.01" r="2.27"/><line class="cls-5" x1="36.21" y1="45.01" x2="43.95" y2="37.27"/><circle class="cls-2" cx="9.89" cy="83.97" r="4.03"/><circle class="cls-2" cx="62.55" cy="83.97" r="4.03"/><path class="cls-2" d="M9.18,4.29l4.69-3.12a7,7,0,0,1,9.75,2l-10.55,7Z"/><path class="cls-2" d="M58.56,1.17l4.69,3.12,4.69,3.12a7,7,0,0,1,2,9.75l-10.55-7-10.55-7A7,7,0,0,1,58.56,1.17Z"/><path class="cls-2" d="M63.25,4.29,58.56,1.17a7,7,0,0,0-9.75,2l10.55,7Z"/></g></g></svg>