<?xml version="1.0" encoding="iso-8859-1"?>
<!-- Generator: Adobe Illustrator 19.0.0, SVG Export Plug-In . SVG Version: 6.00 Build 0)  -->
<svg version="1.1" id="Capa_1" xmlns="http://www.w3.org/2000/svg" xmlns:xlink="http://www.w3.org/1999/xlink" x="0px" y="0px"
	 viewBox="0 0 463.003 463.003" style="enable-background:new 0 0 463.003 463.003;" xml:space="preserve">
<g>
	<path d="M183.501,264.002c-12.958,0-23.5,10.542-23.5,23.5s10.542,23.5,23.5,23.5s23.5-10.542,23.5-23.5
		S196.459,264.002,183.501,264.002z M183.501,296.002c-4.687,0-8.5-3.813-8.5-8.5s3.813-8.5,8.5-8.5s8.5,3.813,8.5,8.5
		S188.188,296.002,183.501,296.002z"/>
	<path d="M175.501,328.002c-12.958,0-23.5,10.542-23.5,23.5s10.542,23.5,23.5,23.5s23.5-10.542,23.5-23.5
		S188.459,328.002,175.501,328.002z M175.501,360.002c-4.687,0-8.5-3.813-8.5-8.5s3.813-8.5,8.5-8.5s8.5,3.813,8.5,8.5
		S180.188,360.002,175.501,360.002z"/>
	<path d="M183.001,223.502c0-12.958-10.542-23.5-23.5-23.5s-23.5,10.542-23.5,23.5s10.542,23.5,23.5,23.5
		S183.001,236.46,183.001,223.502z M151.001,223.502c0-4.687,3.813-8.5,8.5-8.5s8.5,3.813,8.5,8.5s-3.813,8.5-8.5,8.5
		S151.001,228.189,151.001,223.502z"/>
	<path d="M303.001,287.502c0-12.958-10.542-23.5-23.5-23.5s-23.5,10.542-23.5,23.5s10.542,23.5,23.5,23.5
		S303.001,300.46,303.001,287.502z M271.001,287.502c0-4.687,3.813-8.5,8.5-8.5s8.5,3.813,8.5,8.5s-3.813,8.5-8.5,8.5
		S271.001,292.189,271.001,287.502z"/>
	<path d="M287.501,328.002c-12.958,0-23.5,10.542-23.5,23.5s10.542,23.5,23.5,23.5s23.5-10.542,23.5-23.5
		S300.459,328.002,287.501,328.002z M287.501,360.002c-4.687,0-8.5-3.813-8.5-8.5s3.813-8.5,8.5-8.5s8.5,3.813,8.5,8.5
		S292.188,360.002,287.501,360.002z"/>
	<path d="M303.501,200.002c-12.958,0-23.5,10.542-23.5,23.5s10.542,23.5,23.5,23.5s23.5-10.542,23.5-23.5
		S316.459,200.002,303.501,200.002z M303.501,232.002c-4.687,0-8.5-3.813-8.5-8.5s3.813-8.5,8.5-8.5s8.5,3.813,8.5,8.5
		S308.188,232.002,303.501,232.002z"/>
	<path d="M459.222,320.99l-53.512-30.579l-19.447-58.341c-3.205-9.611-12.164-16.068-22.294-16.068h-4.413
		c-2.053-10.125-4.189-18.578-5.919-24.812c-1.195-4.307-3.517-8.045-6.628-10.928l14.095-12.222
		c3.181-2.758,5.566-6.328,6.898-10.323l21.186-63.559l43.546-7.258c4.086-0.681,6.846-4.545,6.165-8.631
		c-0.681-4.086-4.551-6.846-8.631-6.165l-48,8c-2.74,0.457-5.004,2.391-5.882,5.026l-22.614,67.842
		c-0.481,1.445-1.344,2.736-2.495,3.734l-19.683,17.069c-6.301-1.098-14.241-2.458-22.932-3.893l-18.181-24.24
		c-3.027-4.037-7.001-7.251-11.504-9.433l5.117-35.818c0.701-4.904,0.222-9.739-1.23-14.199c0.27-0.136,0.539-0.277,0.798-0.45
		l21.336-14.224c2.596-1.73,4.79-3.923,6.519-6.519l30.225-45.337c2.298-3.446,1.367-8.103-2.08-10.4
		c-3.446-2.298-8.104-1.367-10.4,2.08L299.035,56.68c-0.625,0.938-1.417,1.73-2.356,2.356l-21.337,14.225
		c-0.112,0.075-0.215,0.159-0.322,0.239c-3.34-3.292-7.449-5.881-12.148-7.448l-23.938-7.979c-4.792-1.597-10.07-1.597-14.862,0
		l-23.938,7.979c-4.699,1.566-8.809,4.155-12.148,7.448c-0.107-0.08-0.21-0.164-0.322-0.239l-21.338-14.226
		c-0.938-0.625-1.73-1.417-2.356-2.356l-30.225-45.337c-2.297-3.447-6.954-4.378-10.4-2.08c-3.447,2.297-4.378,6.954-2.08,10.4
		l30.224,45.336c1.73,2.596,3.923,4.79,6.519,6.519l21.337,14.225c0.258,0.172,0.527,0.313,0.798,0.45
		c-1.452,4.46-1.93,9.295-1.23,14.199l5.117,35.818c-4.503,2.182-8.477,5.395-11.504,9.432l-18.181,24.241
		c-8.69,1.435-16.63,2.795-22.932,3.893l-19.683-17.069c-1.151-0.998-2.014-2.289-2.495-3.733L86.616,85.13
		c-0.878-2.636-3.142-4.57-5.882-5.026l-48-8c-4.081-0.683-7.95,2.078-8.631,6.165c-0.681,4.086,2.079,7.95,6.165,8.631
		l43.546,7.258L95,157.717c1.332,3.995,3.718,7.564,6.898,10.323l14.095,12.222c-3.111,2.883-5.433,6.621-6.628,10.928
		c-1.73,6.234-3.866,14.687-5.919,24.812h-4.413c-10.131,0-19.09,6.458-22.294,16.069l-19.447,58.341L3.78,320.99
		c-3.596,2.055-4.846,6.636-2.791,10.233c1.384,2.422,3.915,3.78,6.519,3.78c1.262,0,2.541-0.319,3.714-0.99l56-32
		c1.602-0.916,2.811-2.39,3.394-4.14l20.353-61.059c1.159-3.477,4.399-5.813,8.064-5.813h1.679c-2.668,16.46-4.711,35.81-4.711,56.5
		c0,6.639,0.44,13.184,1.292,19.602l-10.408,10.408c-4.439,4.438-6.883,10.34-6.883,16.617v62.266l-45.803,45.803
		c-2.929,2.929-2.929,7.678,0,10.606c1.464,1.464,3.384,2.197,5.303,2.197s3.839-0.732,5.303-2.197l48-48
		c1.407-1.406,2.197-3.314,2.197-5.303v-65.373c0-2.271,0.884-4.405,2.49-6.011l3.297-3.297
		c5.878,22.216,17.046,42.305,32.838,58.535c24.875,25.565,59.634,39.645,97.875,39.645s73.001-14.08,97.875-39.645
		c15.792-16.23,26.96-36.32,32.838-58.535l3.297,3.297c1.605,1.605,2.49,3.74,2.49,6.011v65.373c0,1.989,0.79,3.897,2.197,5.303
		l48,48c1.464,1.464,3.384,2.197,5.303,2.197s3.839-0.732,5.303-2.197c2.929-2.929,2.929-7.678,0-10.606l-45.803-45.803v-62.266
		c0-6.277-2.444-12.179-6.883-16.617l-10.408-10.408c0.852-6.418,1.292-12.963,1.292-19.602c0-20.69-2.043-40.04-4.711-56.5h1.679
		c3.665,0,6.905,2.336,8.064,5.812l20.353,61.06c0.583,1.75,1.792,3.225,3.394,4.14l56,32c1.174,0.671,2.453,0.99,3.714,0.99
		c2.604,0,5.134-1.358,6.519-3.78C464.068,327.626,462.819,323.045,459.222,320.99z M204.875,80.283l23.938-7.979
		c1.733-0.578,3.643-0.578,5.376,0l23.938,7.979c7.569,2.523,12.245,10.088,11.116,17.987l-4.823,33.759
		c-7.737-1.64-16.696-3.152-25.42-3.751v-24.776c0-4.142-3.358-7.5-7.5-7.5s-7.5,3.358-7.5,7.5v24.776
		c-8.723,0.599-17.683,2.111-25.42,3.751l-4.823-33.759C192.63,90.371,197.305,82.806,204.875,80.283z M184.522,154.641
		c2.28-3.04,5.569-5.215,9.263-6.126c8.351-2.059,24.354-5.513,37.716-5.513s29.366,3.454,37.716,5.513
		c3.694,0.911,6.984,3.087,9.264,6.127l8.877,11.835c-22.39-3.448-45.111-6.475-55.856-6.475c-10.746,0-33.466,3.028-55.856,6.475
		L184.522,154.641z M318.626,372.897c-20.401,20.968-48.454,33.202-79.625,34.894V199.502c0-4.142-3.358-7.5-7.5-7.5
		s-7.5,3.358-7.5,7.5v208.289c-31.17-1.692-59.223-13.926-79.625-34.894c-21.522-22.121-33.375-52.448-33.375-85.395
		c0-40.121,8.031-75.051,12.818-92.3c0.875-3.155,3.431-5.469,6.668-6.038c18.912-3.322,82.086-14.162,101.014-14.162
		s82.103,10.84,101.014,14.162c3.238,0.569,5.793,2.882,6.668,6.037c4.787,17.25,12.818,52.18,12.818,92.301
		C352.001,320.449,340.148,350.776,318.626,372.897z"/>
</g>
<g>
</g>
<g>
</g>
<g>
</g>
<g>
</g>
<g>
</g>
<g>
</g>
<g>
</g>
<g>
</g>
<g>
</g>
<g>
</g>
<g>
</g>
<g>
</g>
<g>
</g>
<g>
</g>
<g>
</g>
</svg>
