<svg xmlns="http://www.w3.org/2000/svg" viewBox="0 0 88.63 88.77"><defs><style>.cls-1{fill:none;stroke:#000;stroke-miterlimit:10;stroke-width:2px;}.cls-2{fill:#89dac1;}.cls-3{fill:#4db5d9;}.cls-4{fill:#fff;}</style></defs><title>Lady_Bug</title><g id="Layer_2" data-name="Layer 2"><g id="Artwork"><path class="cls-1" d="M84.5,84.27l-5.59-7.85a5,5,0,0,1-.93-2.9V63.85a3.42,3.42,0,0,0-1.65-2.93l-5.47-3.31"/><path class="cls-1" d="M88.32,50.28l-7.13-2.37a4.52,4.52,0,0,1-2.73-2.52L73.71,34.25a4.52,4.52,0,0,0-4.3-2.74l-4.32.13"/><path class="cls-1" d="M4.13,84.27l5.59-7.85a5,5,0,0,0,.93-2.9V63.85a3.42,3.42,0,0,1,1.65-2.93l5.47-3.31"/><path class="cls-1" d="M.32,50.28l7.13-2.37a4.52,4.52,0,0,0,2.73-2.52l4.75-11.14a4.52,4.52,0,0,1,4.3-2.74l4.32.13"/><path class="cls-2" d="M28.74,26.45a7.86,7.86,0,0,0-6.21,3,39.16,39.16,0,0,0-7.86,24c0,19.52,13.28,35.35,29.65,35.35V26.45Z"/><path class="cls-3" d="M66.11,29.45a7.86,7.86,0,0,0-6.21-3H44.32V88.77C60.69,88.77,74,72.94,74,53.41A39.16,39.16,0,0,0,66.11,29.45Z"/><path class="cls-2" d="M28.74,26.45a7.86,7.86,0,0,0-6.21,3,39.16,39.16,0,0,0-7.86,24c0,19.52,13.28,35.35,29.65,35.35V26.45Z"/><path d="M39.42,11V7a2,2,0,0,1,2-2h2Z"/><path class="cls-1" d="M29.14.77h0a9.39,9.39,0,0,0,5.58,8.58l5.83,2.58"/><path class="cls-1" d="M14.66.77l7.4,6.18a3.42,3.42,0,0,1,1.23,2.63v7.77A4.57,4.57,0,0,0,26,21.54l1.55.67"/><circle class="cls-3" cx="34.48" cy="60.3" r="6.42"/><circle class="cls-3" cx="25.19" cy="46.87" r="4.3"/><circle class="cls-3" cx="31.5" cy="75.15" r="3.44"/><circle cx="54.15" cy="60.3" r="6.42"/><circle cx="63.44" cy="46.87" r="4.3"/><path class="cls-3" d="M26.92,19.63a4.29,4.29,0,0,0,3.47,6.81H44.32V10.77A21.47,21.47,0,0,0,26.92,19.63Z"/><circle class="cls-3" cx="37.8" cy="10.59" r="1.82"/><path class="cls-2" d="M31.62,19.39l.43-.6a2.17,2.17,0,0,1,1.78-.89h.89a2,2,0,0,0,2.08-2V12.12a21.57,21.57,0,0,0-9.89,7.52,4.45,4.45,0,0,0-.35.57l3.25.08A2.17,2.17,0,0,0,31.62,19.39Z"/><path d="M49.21,11V7a2,2,0,0,0-2-2h-2Z"/><path class="cls-1" d="M59.5.77h0a9.39,9.39,0,0,1-5.58,8.58l-5.83,2.58"/><path class="cls-1" d="M74,.77l-7.4,6.18a3.42,3.42,0,0,0-1.23,2.63v7.77a4.57,4.57,0,0,1-2.75,4.19L61,22.21"/><path d="M61.71,19.63a4.29,4.29,0,0,1-3.47,6.81H44.32V10.77A21.47,21.47,0,0,1,61.71,19.63Z"/><circle class="cls-3" cx="50.83" cy="10.59" r="1.82"/><path class="cls-3" d="M57,19.39l-.43-.6a2.17,2.17,0,0,0-1.78-.89H53.9a2,2,0,0,1-2.08-2V12.12a21.57,21.57,0,0,1,9.89,7.52,4.45,4.45,0,0,1,.35.57l-3.25.08A2.17,2.17,0,0,1,57,19.39Z"/><path class="cls-2" d="M42.71,10.65V8.16a7.61,7.61,0,0,0-3.29,1.6l1.6,1.6A1,1,0,0,0,42.71,10.65Z"/><path d="M50.51,11.13a7.71,7.71,0,0,0-1.3-1.38l-1.6,1.6a1,1,0,0,1-1.69-.7V8.16A7.65,7.65,0,0,0,44.32,8h0a7.65,7.65,0,0,0-1.6.18v2.5a1,1,0,0,1-1.69.7l-1.6-1.6a7.71,7.71,0,0,0-1.3,1.38,1.53,1.53,0,0,0,1.24,2.43h9.91A1.53,1.53,0,0,0,50.51,11.13Z"/><path class="cls-2" d="M45.92,10.65V8.16a7.61,7.61,0,0,1,3.29,1.6l-1.6,1.6A1,1,0,0,1,45.92,10.65Z"/><path class="cls-4" d="M33.92,26.45a11.47,11.47,0,0,0,10.4,6.63V26.45Z"/><path class="cls-2" d="M44.32,26.45v6.63a11.47,11.47,0,0,0,10.4-6.63Z"/><path class="cls-3" d="M34.82,38.29a9.5,9.5,0,0,0,9.5,9.5v-19A9.5,9.5,0,0,0,34.82,38.29Z"/><path d="M44.32,28.8h0v19h0a9.5,9.5,0,1,0,0-19Z"/><circle cx="57.13" cy="75.15" r="3.44"/></g></g></svg>