<svg xmlns="http://www.w3.org/2000/svg" viewBox="0 0 87.96 88"><defs><style>.cls-1{fill:#4db5d9;}.cls-2{fill:#89dac1;}.cls-3{fill:#fff;}</style></defs><title>Chat_Message</title><g id="Layer_2" data-name="Layer 2"><g id="Artwork"><path class="cls-1" d="M78,0H27.1a10,10,0,0,0-10,10.12L17.31,28,71.09,59.82,84.52,73.25a2,2,0,0,0,3.34-1.38L88,10A10,10,0,0,0,78,0Z"/><path d="M17,28H10A10,10,0,0,0,0,38L.1,86a2,2,0,0,0,3.34,1.38L15.11,75.75A6,6,0,0,1,19.35,74H61A10,10,0,0,0,71,64V60Z"/><path class="cls-2" d="M60.91,28.18H17.09L17,49.78a10,10,0,0,0,10,10H70.75l.15-21.57A10,10,0,0,0,60.91,28.18Z"/><circle class="cls-3" cx="35.56" cy="39.68" r="2.79"/><circle class="cls-3" cx="50.3" cy="39.68" r="2.79"/><path class="cls-3" d="M50.33,48.09a20.54,20.54,0,0,1-14.79,0,27.94,27.94,0,0,1-6.91-3.89v4.27a31,31,0,0,0,5.65,2.89,23.94,23.94,0,0,0,17.31,0,31.65,31.65,0,0,0,5.64-2.88V44.23A28.64,28.64,0,0,1,50.33,48.09Z"/></g></g></svg>