<?xml version="1.0" encoding="iso-8859-1"?>
<!-- Generator: Adobe Illustrator 19.0.0, SVG Export Plug-In . SVG Version: 6.00 Build 0)  -->
<svg version="1.1" id="Capa_1" xmlns="http://www.w3.org/2000/svg" xmlns:xlink="http://www.w3.org/1999/xlink" x="0px" y="0px"
	 viewBox="0 0 480.088 480.088" style="enable-background:new 0 0 480.088 480.088;" xml:space="preserve">
<g>
	<g>
		<path d="M456.952,207.082c17.286-13.756,20.148-38.921,6.392-56.207c-13.756-17.286-38.921-20.148-56.207-6.392
			c-17.286,13.756-20.148,38.921-6.392,56.207c1.882,2.365,4.027,4.51,6.392,6.392c-4.908,2.991-9.242,6.834-12.799,11.348
			l-39.211,39.211c-7.849-10.555-22.769-12.749-33.324-4.9c-2.372,1.764-4.395,3.954-5.965,6.458l-47.145-33.675l-0.041,0.058
			c-1.192-0.89-2.426-1.723-3.699-2.5c17.286-13.756,20.148-38.921,6.392-56.207c-13.756-17.286-38.921-20.148-56.207-6.392
			c-17.286,13.756-20.148,38.921-6.392,56.207c1.882,2.365,4.027,4.51,6.392,6.392c-1.274,0.778-2.507,1.611-3.699,2.5l-0.041-0.058
			l-47.145,33.675c-6.989-11.144-21.688-14.512-32.831-7.523c-2.504,1.57-4.694,3.593-6.458,5.965l-39.211-39.211
			c-3.557-4.514-7.891-8.357-12.799-11.348c17.286-13.756,20.148-38.921,6.392-56.207c-13.756-17.286-38.921-20.148-56.207-6.392
			C5.85,158.238,2.989,183.403,16.745,200.69c1.882,2.365,4.027,4.51,6.392,6.392c-14.319,8.684-23.072,24.207-23.093,40.954v72
			c-0.001,4.417,3.579,7.999,7.996,8c0.001,0,0.003,0,0.004,0h80c4.417,0.001,7.999-3.579,8-7.996c0-0.001,0-0.003,0-0.004v-68.688
			l24.373,24.373c1.995,13.063,14.202,22.036,27.265,20.041c10.066-1.537,18.056-9.276,19.913-19.288l24.749-17.677
			c-0.195,1.74-0.295,3.489-0.3,5.239v72c-0.001,4.417,3.579,7.999,7.996,8c0.001,0,0.003,0,0.004,0h80
			c4.417,0.001,7.999-3.579,8-7.996c0-0.001,0-0.003,0-0.004v-72c-0.005-1.751-0.105-3.5-0.3-5.239l24.749,17.677
			c2.411,12.993,14.898,21.571,27.891,19.16c10.011-1.858,17.75-9.848,19.288-19.913l24.373-24.373v68.688
			c-0.001,4.417,3.579,7.999,7.996,8c0.001,0,0.003,0,0.004,0h80c4.417,0.001,7.999-3.579,8-7.996c0-0.001,0-0.003,0-0.004v-72
			C480.023,231.289,471.27,215.766,456.952,207.082z M48.044,152.036c13.255,0,24,10.745,24,24s-10.745,24-24,24s-24-10.745-24-24
			C24.058,162.787,34.795,152.05,48.044,152.036z M80.044,312.036h-64v-64c0-17.673,14.327-32,32-32s32,14.327,32,32V312.036z
			 M144.044,280.036c-4.418,0-8-3.582-8-8s3.582-8,8-8s8,3.582,8,8C152.04,276.452,148.46,280.031,144.044,280.036z
			 M240.044,168.036c13.255,0,24,10.745,24,24s-10.745,24-24,24s-24-10.745-24-24C216.058,178.787,226.795,168.05,240.044,168.036z
			 M272.044,328.036h-64v-64c0-17.673,14.327-32,32-32c17.673,0,32,14.327,32,32V328.036z M336.044,280.036c-4.418,0-8-3.582-8-8
			s3.582-8,8-8s8,3.582,8,8C344.04,276.452,340.46,280.031,336.044,280.036z M432.044,152.036c13.255,0,24,10.745,24,24
			s-10.745,24-24,24s-24-10.745-24-24C408.058,162.787,418.795,152.05,432.044,152.036z M464.044,312.036h-64v-64
			c0-17.673,14.327-32,32-32c17.673,0,32,14.327,32,32V312.036z"/>
	</g>
</g>
<g>
	<g>
		<path d="M274.954,63.063c-9.374-9.372-24.57-9.37-33.941,0.004c-9.372-9.372-24.566-9.372-33.937,0
			c-9.372,9.372-9.372,24.566,0,33.937l28.281,28.285c3.122,3.124,8.186,3.125,11.31,0.003c0.001-0.001,0.002-0.002,0.003-0.003
			l28.289-28.285C284.33,87.631,284.328,72.434,274.954,63.063z M263.646,85.692l-22.633,22.629l-22.625-22.633
			c-3.097-3.149-3.055-8.213,0.094-11.31c3.113-3.062,8.106-3.061,11.218,0.002l5.656,5.656c3.122,3.124,8.186,3.125,11.31,0.003
			c0.001-0.001,0.002-0.002,0.003-0.003l5.656-5.656c3.131-3.114,8.19-3.114,11.321,0C266.763,77.506,266.763,82.565,263.646,85.692
			z"/>
	</g>
</g>
<g>
	<g>
		<path d="M473.263,7.207l-0.008-0.004c-9.137-9.148-23.925-9.27-33.211-0.273c-9.289-8.999-24.081-8.876-33.219,0.277
			c-8.994,9.508-8.99,24.387,0.008,33.891l27.453,28.488c3.062,3.18,8.121,3.276,11.301,0.214c0.073-0.07,0.144-0.142,0.214-0.214
			l27.453-28.488C482.254,31.594,482.257,16.715,473.263,7.207z M461.739,29.996l-21.695,22.512l-21.695-22.512
			c-3.102-3.28-3.102-8.411,0-11.691c2.692-2.884,7.213-3.04,10.097-0.348c0.12,0.112,0.236,0.228,0.348,0.348l5.492,5.699
			c3.199,3.133,8.316,3.133,11.516,0l5.492-5.699c2.82-2.883,7.444-2.934,10.327-0.114c0.037,0.036,0.074,0.073,0.11,0.11
			C464.839,21.579,464.843,26.714,461.739,29.996z"/>
	</g>
</g>
<g>
	<g>
		<path d="M73.263,7.208l-0.008-0.004C64.118-1.944,49.33-2.066,40.044,6.93C30.755-2.069,15.963-1.946,6.825,7.207
			c-8.994,9.508-8.99,24.387,0.008,33.891l27.453,28.488c3.062,3.18,8.121,3.276,11.301,0.214c0.073-0.07,0.144-0.142,0.214-0.214
			l27.453-28.488C82.253,31.595,82.257,16.716,73.263,7.208z M61.739,29.996L40.044,52.508L18.349,29.996
			c-3.185-3.297-3.253-8.46,0-11.691c2.692-2.884,7.213-3.04,10.097-0.348c0.12,0.112,0.236,0.228,0.348,0.348l5.492,5.699
			c3.199,3.133,8.316,3.133,11.516,0l5.492-5.699c2.82-2.883,7.444-2.934,10.327-0.114c0.037,0.036,0.074,0.073,0.11,0.11
			C64.839,21.579,64.843,26.714,61.739,29.996z"/>
	</g>
</g>
<g>
	<g>
		<g>
			<polygon points="431.794,124.18 431.794,124.18 431.794,124.18 			"/>
			<path d="M115.828,34.669c-33.248,20.103-61.119,47.974-81.222,81.222l13.688,8.289C112.316,18.279,250.066-15.67,355.967,48.353
				c31.041,18.766,57.062,44.787,75.827,75.827l13.688-8.289C376.879,2.431,229.288-33.933,115.828,34.669z"/>
		</g>
	</g>
</g>
<g>
	<g>
		<path d="M440.333,340.446c-55.504,110.617-190.171,155.294-300.788,99.79c-43.143-21.648-78.143-56.647-99.79-99.79l-14.297,7.18
			c59.468,118.513,203.749,166.378,322.261,106.91c46.221-23.193,83.718-60.69,106.91-106.91L440.333,340.446z"/>
	</g>
</g>
<g>
</g>
<g>
</g>
<g>
</g>
<g>
</g>
<g>
</g>
<g>
</g>
<g>
</g>
<g>
</g>
<g>
</g>
<g>
</g>
<g>
</g>
<g>
</g>
<g>
</g>
<g>
</g>
<g>
</g>
</svg>
