<svg xmlns="http://www.w3.org/2000/svg" viewBox="0 0 88 65.72"><defs><style>.cls-1{fill:#4db5d9;}.cls-2{fill:#a5a5a5;}.cls-3{fill:#777;}.cls-4{fill:#fff;}.cls-5{fill:#89dac1;}.cls-6{fill:#d6d6d5;}</style></defs><title>Carpool</title><g id="Layer_2" data-name="Layer 2"><g id="Artwork"><path d="M48.48,44.62l6.68-3.08v-16l2.05-3.9-2.05-5.19h0a6.68,6.68,0,0,0-6.68,6.68Z"/><path class="cls-1" d="M86.75,57.43c-1-6.73-5.38-10.79-11.58-13.59H71.62l-1.78-2.4-14.67.09L43.58,46.88c-4.48,2-7.36,4.7-7.36,9.61v9.08L88,65.72Z"/><path class="cls-1" d="M55.17,41.45A19.89,19.89,0,0,0,35.71,65.63H55.17Z"/><circle class="cls-2" cx="67.59" cy="14.9" r="12.43"/><path class="cls-2" d="M71.62,47.16V21.34H55.17V41.45h0a18.3,18.3,0,0,1,12.94,5.36l3.51,3.51V47.16"/><path class="cls-2" d="M67.59,32.31H77.71A2.31,2.31,0,0,0,80,30V14.9H67.59Z"/><path d="M67.59,2.48A12.43,12.43,0,0,0,55.17,14.9v8.88l-.79,6.07.79,3,4.29-4.29a5.43,5.43,0,0,0,1.59-3.84V18.37A1.92,1.92,0,0,1,63,16.45h0a1.92,1.92,0,0,1,1.92,1.92v4.76L79,9.07a3.86,3.86,0,0,0-2.73-6.59Z"/><polygon class="cls-3" points="64.9 23.13 64.9 23.13 64.9 23.13 64.9 23.13"/><polygon class="cls-1" points="80.02 16.26 80.02 16.26 80.02 16.26 80.02 16.26"/><path class="cls-2" d="M80,16.26v4.95h1.23a.58.58,0,0,0,.41-1h0A5.61,5.61,0,0,1,80,16.26Z"/><rect class="cls-4" x="64.16" y="23.44" width="1.48" height="1.48" transform="translate(36.11 -38.81) rotate(45)"/><rect class="cls-1" x="79.32" y="14.9" width="1.36" height="5.02"/><path class="cls-1" d="M80.06,16.9H65.59A1.36,1.36,0,0,1,67,15.54H80.06Z"/><path class="cls-5" d="M56.3,58.6A21.55,21.55,0,0,0,34.93,39.82H14.52A14.52,14.52,0,0,0,0,54.34V65.57l57.22.15Z"/><path d="M14.52,35.83H32a3.28,3.28,0,0,1,3.28,3.28v.71a0,0,0,0,1,0,0H14.52a0,0,0,0,1,0,0v-4A0,0,0,0,1,14.52,35.83Z"/><path d="M45.69,61a36.54,36.54,0,0,0-10.4-21.16H14.52A36.54,36.54,0,0,1,24.92,61l.61,4.74H46.3Z"/><path class="cls-6" d="M42.88,20l0,0a4.5,4.5,0,0,1-1.31-3.14V12.43a12.43,12.43,0,1,0-23,6.44H16.68v21h11l5.45,5.45V39.82h0V33.69h5.68A2.72,2.72,0,0,0,41.53,31V20.66h1.06A.41.41,0,0,0,42.88,20Z"/><path class="cls-1" d="M29.42,20.66V17.25h-3V27a6.66,6.66,0,0,0,6.66,6.66h5.81A2.64,2.64,0,0,0,41.53,31V20.66Z"/><path d="M24.4,35.83H14.52v4l13.16.79V39.11A3.28,3.28,0,0,0,24.4,35.83Z"/><path class="cls-1" d="M29.11,0A12.43,12.43,0,0,0,16.68,12.43V23h1.51a4.38,4.38,0,0,0,4.38-4.38V15.9A1.92,1.92,0,0,1,24.49,14h0a1.92,1.92,0,0,1,1.92,1.92v1.35h3V14h0a3.28,3.28,0,0,1,3.28-3.28h.07V8.29a1.7,1.7,0,0,1,1.7-1.7h5.61l1.2-1.2a4.54,4.54,0,0,0,1.33-3.21h0A2.18,2.18,0,0,0,40.42,0Z"/><polygon points="71.62 35.37 68.56 32.31 71.62 32.36 71.62 35.37"/><path class="cls-4" d="M71.62,32.36V50.18h0a19.86,19.86,0,0,0-16.37-8.73A18.91,18.91,0,0,0,74.08,58.66h1.1V43.85Z"/></g></g></svg>