<?xml version="1.0" encoding="iso-8859-1"?>
<!-- Generator: Adobe Illustrator 19.0.0, SVG Export Plug-In . SVG Version: 6.00 Build 0)  -->
<svg version="1.1" id="Capa_1" xmlns="http://www.w3.org/2000/svg" xmlns:xlink="http://www.w3.org/1999/xlink" x="0px" y="0px"
	 viewBox="0 0 480 480" style="enable-background:new 0 0 480 480;" xml:space="preserve">
<g>
	<g>
		<path d="M472,0H264c-4.418,0-8,3.582-8,8v208c0,4.418,3.582,8,8,8h208c4.418,0,8-3.582,8-8V8C480,3.582,476.418,0,472,0z M416,208
			h-96v-48c0-26.51,21.49-48,48-48c26.51,0,48,21.49,48,48V208z M344,72c0-13.255,10.745-24,24-24s24,10.745,24,24s-10.745,24-24,24
			C354.751,95.986,344.014,85.249,344,72z M464,208h-32v-48c-0.038-25.088-14.721-47.843-37.564-58.215
			c16.58-14.6,18.184-39.876,3.584-56.456c-14.6-16.58-39.876-18.184-56.456-3.584s-18.184,39.876-3.584,56.456
			c1.118,1.269,2.315,2.466,3.584,3.584C318.721,112.157,304.038,134.912,304,160v48h-32V16h192V208z"/>
	</g>
</g>
<g>
	<g>
		<path d="M216,0H8C3.582,0,0,3.582,0,8v208c0,4.418,3.582,8,8,8h208c4.418,0,8-3.582,8-8V8C224,3.582,220.418,0,216,0z M160,208H64
			v-48c0-26.51,21.49-48,48-48c26.51,0,48,21.49,48,48V208z M88,72c0-13.255,10.745-24,24-24s24,10.745,24,24s-10.745,24-24,24
			C98.751,95.986,88.014,85.249,88,72z M208,208h-32v-48c-0.038-25.088-14.721-47.843-37.564-58.215
			c16.58-14.6,18.184-39.876,3.584-56.456c-14.6-16.58-39.876-18.184-56.456-3.584c-16.58,14.6-18.184,39.876-3.584,56.456
			c1.118,1.269,2.315,2.466,3.584,3.584C62.721,112.157,48.038,134.912,48,160v48H16V16h192V208z"/>
	</g>
</g>
<g>
	<g>
		<path d="M472,256H264c-4.418,0-8,3.582-8,8v208c0,4.418,3.582,8,8,8h208c4.418,0,8-3.582,8-8V264C480,259.582,476.418,256,472,256
			z M416,464h-96v-32c0-26.51,21.49-48,48-48c26.51,0,48,21.49,48,48V464z M344,344c0-13.255,10.745-24,24-24s24,10.745,24,24
			s-10.745,24-24,24C354.751,367.986,344.014,357.249,344,344z M464,464h-32v-32c-0.038-25.088-14.721-47.843-37.564-58.215
			c16.58-14.6,18.184-39.876,3.584-56.456c-14.6-16.58-39.876-18.184-56.456-3.584c-16.58,14.6-18.184,39.876-3.584,56.456
			c1.118,1.269,2.315,2.466,3.584,3.584C318.721,384.157,304.038,406.912,304,432v32h-32V272h192V464z"/>
	</g>
</g>
<g>
	<g>
		<path d="M216,256H8c-4.418,0-8,3.582-8,8v208c0,4.418,3.582,8,8,8h208c4.418,0,8-3.582,8-8V264C224,259.582,220.418,256,216,256z
			 M160,464H64v-32c0-26.51,21.49-48,48-48c26.51,0,48,21.49,48,48V464z M88,344c0-13.255,10.745-24,24-24s24,10.745,24,24
			s-10.745,24-24,24C98.751,367.986,88.014,357.249,88,344z M208,464h-32v-32c-0.038-25.088-14.721-47.843-37.564-58.215
			c16.58-14.6,18.184-39.876,3.584-56.456c-14.6-16.58-39.876-18.184-56.456-3.584c-16.58,14.6-18.184,39.876-3.584,56.456
			c1.118,1.269,2.315,2.466,3.584,3.584C62.721,384.157,48.038,406.912,48,432v32H16V272h192V464z"/>
	</g>
</g>
<g>
	<g>
		<polygon points="96,128 96,144 104,144 104,192 120,192 120,144 128,144 128,128 		"/>
	</g>
</g>
<g>
	<g>
		<path d="M396.115,137.14c-1.243-0.746-2.666-1.14-4.115-1.14h-48c-4.419,0.001-8,3.583-8,8.002c0,1.45,0.394,2.872,1.14,4.115
			l24,40c2.274,3.788,7.188,5.016,10.976,2.742c1.125-0.675,2.067-1.617,2.742-2.742l24-40
			C401.133,144.328,399.904,139.414,396.115,137.14z M368,168.449L358.129,152h19.742L368,168.449z"/>
	</g>
</g>
<g>
	<g>
		<path d="M368,400c-13.255,0-24,10.745-24,24s10.745,24,24,24s24-10.745,24-24C391.986,410.751,381.249,400.014,368,400z M368,432
			c-4.418,0-8-3.582-8-8s3.582-8,8-8s8,3.582,8,8C375.994,428.416,372.416,431.994,368,432z"/>
	</g>
</g>
<g>
	<g>
		<path d="M128,400H96c-4.418,0-8,3.582-8,8v32c0,4.418,3.582,8,8,8h32c4.418,0,8-3.582,8-8v-32C136,403.582,132.418,400,128,400z
			 M120,432h-16v-16h16V432z"/>
	</g>
</g>
<g>
</g>
<g>
</g>
<g>
</g>
<g>
</g>
<g>
</g>
<g>
</g>
<g>
</g>
<g>
</g>
<g>
</g>
<g>
</g>
<g>
</g>
<g>
</g>
<g>
</g>
<g>
</g>
<g>
</g>
</svg>
