<?xml version="1.0" encoding="iso-8859-1"?>
<!-- Generator: Adobe Illustrator 19.0.0, SVG Export Plug-In . SVG Version: 6.00 Build 0)  -->
<svg version="1.1" id="Capa_1" xmlns="http://www.w3.org/2000/svg" xmlns:xlink="http://www.w3.org/1999/xlink" x="0px" y="0px"
	 viewBox="0 0 480 480" style="enable-background:new 0 0 480 480;" xml:space="preserve">
<g>
	<g>
		<path d="M75.395,388.994c16.097-15.13,16.882-40.444,1.752-56.541S36.703,315.57,20.605,330.7
			c-16.097,15.13-16.882,40.444-1.752,56.541c0.566,0.602,1.15,1.186,1.752,1.752C7.955,395.831,0.051,409.034,0,423.414V472
			c-0.003,4.416,3.575,7.997,7.991,8c0.003,0,0.006,0,0.009,0h80c4.416,0.003,7.997-3.575,8-7.991c0-0.003,0-0.006,0-0.009v-48.586
			C95.949,409.034,88.045,395.831,75.395,388.994z M48,336c13.255,0,24,10.745,24,24s-10.745,24-24,24s-24-10.745-24-24
			C24.014,346.751,34.751,336.014,48,336z M80,464H16v-40.586c0.012-12.926,10.488-23.402,23.414-23.414h17.172
			c12.926,0.012,23.402,10.488,23.414,23.414V464z"/>
	</g>
</g>
<g>
	<g>
		<path d="M203.395,388.994c16.097-15.13,16.882-40.444,1.752-56.541s-40.444-16.882-56.541-1.752
			c-16.097,15.13-16.882,40.444-1.752,56.541c0.566,0.602,1.15,1.186,1.752,1.752c-12.651,6.837-20.555,20.04-20.605,34.42V472
			c-0.003,4.416,3.575,7.997,7.991,8c0.003,0,0.006,0,0.009,0h80c4.416,0.003,7.997-3.575,8-7.991c0-0.003,0-0.006,0-0.009v-48.586
			C223.949,409.034,216.045,395.831,203.395,388.994z M176,336c13.255,0,24,10.745,24,24s-10.745,24-24,24s-24-10.745-24-24
			C152.014,346.751,162.751,336.014,176,336z M208,464h-64v-40.586c0.012-12.926,10.488-23.402,23.414-23.414h17.172
			c12.926,0.012,23.402,10.488,23.414,23.414V464z"/>
	</g>
</g>
<g>
	<g>
		<path d="M331.395,388.994c16.097-15.13,16.882-40.444,1.752-56.541s-40.444-16.882-56.541-1.752
			c-16.097,15.13-16.882,40.444-1.752,56.541c0.566,0.602,1.15,1.186,1.752,1.752c-12.651,6.837-20.555,20.04-20.605,34.42V472
			c-0.003,4.416,3.575,7.997,7.991,8c0.003,0,0.006,0,0.009,0h80c4.416,0.003,7.997-3.575,8-7.991c0-0.003,0-0.006,0-0.009v-48.586
			C351.949,409.034,344.045,395.831,331.395,388.994z M304,336c13.255,0,24,10.745,24,24s-10.745,24-24,24s-24-10.745-24-24
			C280.014,346.751,290.751,336.014,304,336z M336,464h-64v-40.586c0.012-12.926,10.488-23.402,23.414-23.414h17.172
			c12.926,0.012,23.402,10.488,23.414,23.414V464z"/>
	</g>
</g>
<g>
	<g>
		<path d="M459.395,388.994c16.097-15.13,16.882-40.444,1.752-56.541s-40.444-16.882-56.541-1.752
			c-16.097,15.13-16.882,40.444-1.752,56.541c0.566,0.602,1.15,1.186,1.752,1.752c-12.651,6.837-20.555,20.04-20.605,34.42V472
			c-0.003,4.416,3.575,7.997,7.991,8c0.003,0,0.006,0,0.009,0h80c4.416,0.003,7.997-3.575,8-7.991c0-0.003,0-0.006,0-0.009v-48.586
			C479.949,409.034,472.045,395.831,459.395,388.994z M432,336c13.255,0,24,10.745,24,24s-10.745,24-24,24s-24-10.745-24-24
			C408.014,346.751,418.751,336.014,432,336z M464,464h-64v-40.586c0.012-12.926,10.488-23.402,23.414-23.414h17.172
			c12.926,0.012,23.402,10.488,23.414,23.414V464z"/>
	</g>
</g>
<g>
	<g>
		<path d="M288.009,40c-0.003,0-0.006,0-0.009,0H176c-4.416-0.003-7.997,3.575-8,7.991c0,0.003,0,0.006,0,0.009v144
			c-0.003,4.416,3.575,7.997,7.991,8c0.003,0,0.006,0,0.009,0h112c4.416,0.003,7.997-3.575,8-7.991c0-0.003,0-0.006,0-0.009V48
			C296.003,43.584,292.425,40.003,288.009,40z M280,184h-96V56h96V184z"/>
	</g>
</g>
<g>
	<g>
		<path d="M423.365,42.263c-0.34-0.356-0.688-0.704-1.044-1.044c-12.908-12.25-33.147-12.25-46.055,0L376,41.477l-0.266-0.258
			c-12.908-12.25-33.147-12.25-46.055,0c-12.487,11.91-12.954,31.688-1.044,44.175c0.34,0.356,0.688,0.704,1.044,1.044l40.766,39.32
			c3.1,2.99,8.01,2.99,11.109,0l40.766-39.32C434.807,74.528,435.275,54.75,423.365,42.263z M411.85,74.283
			c-0.207,0.219-0.42,0.432-0.639,0.639L376,108.883l-35.211-33.961c-6.127-5.774-6.413-15.421-0.639-21.548
			c0.207-0.219,0.42-0.432,0.639-0.639h0c6.683-6.333,17.153-6.333,23.836,0l5.82,5.617c3.102,2.984,8.008,2.984,11.109,0
			l5.82-5.617c6.681-6.34,17.155-6.34,23.836,0C417.338,58.508,417.624,68.156,411.85,74.283z"/>
	</g>
</g>
<g>
	<g>
		<path d="M262.398,115.203l-24-32c-2.904-3.534-8.123-4.044-11.657-1.14c-0.416,0.342-0.798,0.724-1.14,1.14l-24,32
			c-2.133,2.842-2.133,6.751,0,9.594l24,32c2.645,3.534,7.653,4.254,11.187,1.61c0.611-0.457,1.153-0.999,1.61-1.61l24-32
			C264.531,121.955,264.531,118.045,262.398,115.203z M232,138.664L218,120l14-18.664L246,120L232,138.664z"/>
	</g>
</g>
<g>
	<g>
		<path d="M376,144c-35.346,0-64,28.654-64,64c0,35.346,28.654,64,64,64c35.346,0,64-28.654,64-64
			C439.96,172.671,411.329,144.04,376,144z M376,256c-26.51,0-48-21.49-48-48c0-26.51,21.49-48,48-48c26.51,0,48,21.49,48,48
			C423.971,234.498,402.498,255.971,376,256z"/>
	</g>
</g>
<g>
	<g>
		<path d="M384,224c-0.003,4.417-3.583,7.997-8,8c-4.417-0.003-7.997-3.583-8-8h-16c0,13.255,10.745,24,24,24s24-10.745,24-24H384z"
			/>
	</g>
</g>
<g>
	<g>
		<path d="M396,184c-6.627,0-12,5.373-12,12c0,6.627,5.373,12,12,12c6.627,0,12-5.373,12-12
			C407.993,189.376,402.624,184.007,396,184z M396,200c-2.209,0-4-1.791-4-4c0-2.209,1.791-4,4-4c2.209,0,4,1.791,4,4
			C399.996,198.207,398.207,199.996,396,200z"/>
	</g>
</g>
<g>
	<g>
		<path d="M356,184c-6.627,0-12,5.373-12,12c0,6.627,5.373,12,12,12c6.624-0.007,11.993-5.376,12-12
			C368,189.373,362.627,184,356,184z M356,200c-2.207-0.004-3.996-1.793-4-4c0-2.209,1.791-4,4-4c2.209,0,4,1.791,4,4
			C360,198.209,358.209,200,356,200z"/>
	</g>
</g>
<g>
	<g>
		<path d="M144.009,160c-0.003,0-0.006,0-0.009,0H48c-4.416-0.003-7.997,3.575-8,7.991c0,0.003,0,0.006,0,0.009v56
			c-0.003,4.416,3.575,7.997,7.991,8c0.003,0,0.006,0,0.009,0h29.102l45.773,38.148c3.395,2.829,8.441,2.37,11.27-1.025
			c1.55-1.859,2.174-4.321,1.699-6.694L129.758,232H144c4.416,0.003,7.997-3.575,8-7.991c0-0.003,0-0.006,0-0.009v-56
			C152.003,163.584,148.425,160.003,144.009,160z M136,216h-16c-4.418,0-8,3.582-7.999,8.001c0,0.527,0.052,1.053,0.156,1.57
			l3.555,17.773l-30.586-25.492C83.685,216.655,81.872,216,80,216H56v-40h80V216z"/>
	</g>
</g>
<g>
	<g>
		<path d="M387.227,0H92.773C41.56,0.057,0.057,41.56,0,92.773v118.453C0.057,262.44,41.56,303.943,92.773,304h294.453
			c51.214-0.057,92.716-41.56,92.773-92.773V92.773C479.943,41.56,438.44,0.057,387.227,0z M464,211.227
			c-0.046,42.382-34.392,76.728-76.773,76.773H92.773C50.392,287.954,16.046,253.608,16,211.227V92.773
			C16.046,50.392,50.392,16.046,92.773,16h294.453c42.382,0.046,76.728,34.392,76.773,76.773V211.227z"/>
	</g>
</g>
<g>
	<g>
		<path d="M104.752,32.683C101.857,32.227,98.931,31.998,96,32c-23.732,0.043-44.864,15.027-52.759,37.407l-0.046,0.085
			l-0.035,0.135c-0.989,2.831-1.746,5.738-2.264,8.691c-0.056,0.31-0.092,0.619-0.142,0.929
			c-4.814,30.531,16.034,59.184,46.565,63.998s59.184-16.034,63.998-46.565S135.283,37.497,104.752,32.683z M87.332,126.994
			c-21.053-4.39-34.688-24.862-30.625-45.981C74.978,85.08,87.982,101.281,88,120C87.989,122.347,87.765,124.688,87.332,126.994z
			 M103.375,127.254c0.37-2.402,0.579-4.825,0.625-7.254c-0.023-25.266-16.972-47.382-41.362-53.976
			c5.846-8.884,14.985-15.079,25.402-17.22c0.498,26.338,19.215,48.8,45.032,54.04C127.982,115.512,116.788,124.712,103.375,127.254
			z M104.083,48.824c18.214,3.807,31.402,19.665,31.825,38.269C117.713,83.254,104.54,67.414,104.083,48.824z"/>
	</g>
</g>
<g>
</g>
<g>
</g>
<g>
</g>
<g>
</g>
<g>
</g>
<g>
</g>
<g>
</g>
<g>
</g>
<g>
</g>
<g>
</g>
<g>
</g>
<g>
</g>
<g>
</g>
<g>
</g>
<g>
</g>
</svg>
