<?xml version="1.0" encoding="utf-8"?>
<svg version="1.1" id="Layer_1" xmlns="http://www.w3.org/2000/svg" xmlns:xlink="http://www.w3.org/1999/xlink" x="0px" y="0px"
	 viewBox="0 0 73.1 86.6" style="enable-background:new 0 0 73.1 86.6;" xml:space="preserve">
<style type="text/css">
	.st0{fill:#BCBBBB;}
	.st1{fill:#F48023;}
</style>
<polygon class="st0" points="61.8,78.9 61.8,55.7 69.5,55.7 69.5,86.6 0,86.6 0,55.7 7.7,55.7 7.7,78.9 "/>
<path class="st1" d="M16.2,53.5L54,61.4l1.6-7.6l-37.8-7.9L16.2,53.5z M21.2,35.5l35,16.3l3.2-7l-35-16.4L21.2,35.5z M30.9,18.3
	L60.6,43l4.9-5.9L35.8,12.4L30.9,18.3z M50.1,0l-6.2,4.6l23,31l6.2-4.6L50.1,0z M15.4,71.1H54v-7.7H15.4V71.1z"/>
</svg>
