<?xml version="1.0" encoding="utf-8"?>
<!-- Generator: Adobe Illustrator 19.1.0, SVG Export Plug-In . SVG Version: 6.00 Build 0)  -->
<svg version="1.1" id="Layer_1" xmlns="http://www.w3.org/2000/svg" xmlns:xlink="http://www.w3.org/1999/xlink" x="0px" y="0px"
	 viewBox="0 0 350 381.1" style="enable-background:new 0 0 350 381.1;" xml:space="preserve">
<style type="text/css">
	.st0{fill:none;}
	.st1{fill:url(#SVGID_1_);}
	.st2{fill:#D7D7D6;}
	.st3{fill:url(#SVGID_2_);}
	.st4{fill:#4db5d9;}
	.st5{clip-path:url(#SVGID_4_);}
	.st6{fill:none;stroke:#FFFFFF;stroke-width:2;stroke-miterlimit:10;}
	.st7{clip-path:url(#SVGID_6_);fill:url(#SVGID_7_);}
	.st8{clip-path:url(#SVGID_9_);fill:#B4DFD2;}
	.st9{fill:#FFFFFF;}
	.st10{clip-path:url(#SVGID_11_);}
	.st11{clip-path:url(#SVGID_13_);}
	.st12{fill:#B4DFD2;}
	.st13{fill:none;stroke:#000000;stroke-width:2;stroke-miterlimit:10;}
</style>
<pattern  x="524.3" y="295.3" width="4" height="4" patternUnits="userSpaceOnUse" id="_x32__x2F_2_-_black" viewBox="0 -4 4 4" style="overflow:visible;">
	<g>
		<polygon class="st0" points="0,-4 4,-4 4,0 0,0 		"/>
		<polygon points="2,-2 0,-2 0,-4 2,-4 		"/>
	</g>
</pattern>
<g>
	<g>
		<pattern  id="SVGID_1_" xlink:href="#_x32__x2F_2_-_black" patternTransform="matrix(1 0 0 1 -3 -3)">
		</pattern>
		<rect x="175" y="227.1" class="st1" width="89" height="133"/>
		<path class="st2" d="M160.9,10L175,0v206.1H0l0-175h95C118.6,31.1,141.6,23.7,160.9,10z"/>
		<pattern  id="SVGID_2_" xlink:href="#_x32__x2F_2_-_black" patternTransform="matrix(1 0 0 1 -3 -3)">
		</pattern>
		<rect x="21" y="119.7" class="st3" width="133" height="86.4"/>
		<circle class="st2" cx="262.5" cy="293.6" r="66.5"/>
		<circle class="st4" cx="87.5" cy="118.6" r="66.5"/>
		<path class="st2" d="M0,206.1L0,206.1l175,0v175h0C78.4,381.1,0,302.7,0,206.1z"/>
		<g>
			<defs>
				<path id="SVGID_3_" d="M0,206.1L0,206.1l175,0v175h0C78.4,381.1,0,302.7,0,206.1z"/>
			</defs>
			<use xlink:href="#SVGID_3_"  style="overflow:visible;fill:#B4DFD2;"/>
			<clipPath id="SVGID_4_">
				<use xlink:href="#SVGID_3_"  style="overflow:visible;"/>
			</clipPath>
			<g class="st5">
				<g>
					<circle class="st6" cx="175" cy="206.1" r="168.8"/>
					<path class="st6" d="M12.7,199.4C16.2,112.8,87.5,43.6,175,43.6c89.7,0,162.5,72.7,162.5,162.5S264.7,368.6,175,368.6
						c-69.1,0-128.1-43.1-151.6-103.9"/>
					<path class="st6" d="M52.6,303c-21.1-26.6-33.7-60.3-33.7-96.9C18.9,119.9,88.8,50,175,50s156.1,69.9,156.1,156.1
						S261.2,362.2,175,362.2c-24.5,0-47.7-5.6-68.3-15.7"/>
					<circle class="st6" cx="175" cy="206.1" r="149.8"/>
					<circle class="st6" cx="175" cy="206.1" r="143.4"/>
					<circle class="st6" cx="175" cy="206.1" r="137.1"/>
					<path class="st6" d="M128.3,328.2c-49.1-18.8-84-66.4-84-122.1c0-72.2,58.5-130.7,130.7-130.7s130.7,58.5,130.7,130.7
						c0,70.9-56.5,128.7-127,130.7"/>
					<path class="st6" d="M129.3,328.6c-49.6-18.5-85-66.4-85-122.5c0-72.2,58.5-130.7,130.7-130.7s130.7,58.5,130.7,130.7
						c0,70.9-56.5,128.7-127,130.7"/>
					<circle class="st6" cx="175" cy="206.1" r="124.4"/>
					<path class="st6" d="M57.1,200.9C59.8,138.1,111.6,88.1,175,88.1c65.2,0,118,52.8,118,118s-52.8,118-118,118
						c-39.7,0-74.9-19.6-96.3-49.7"/>
					<circle class="st6" cx="175" cy="206.1" r="111.7"/>
					<circle class="st6" cx="175" cy="206.1" r="105.3"/>
					<circle class="st6" cx="175" cy="206.1" r="99"/>
					<circle class="st6" cx="175" cy="206.1" r="92.6"/>
					<path class="st6" d="M101.2,250.8c-7.9-13-12.4-28.3-12.4-44.7c0-47.7,38.6-86.3,86.3-86.3s86.3,38.6,86.3,86.3
						s-38.6,86.3-86.3,86.3c-9.9,0-19.4-1.7-28.2-4.7"/>
					<circle class="st6" cx="175" cy="206.1" r="79.9"/>
					<circle class="st6" cx="175" cy="206.1" r="73.6"/>
					<circle class="st6" cx="175" cy="206.1" r="67.2"/>
					<circle class="st6" cx="175" cy="206.1" r="60.9"/>
					<circle class="st6" cx="175" cy="206.1" r="54.6"/>
					<path class="st6" d="M148.7,246.5c-13.2-8.6-22-23.5-22-40.4c0-26.6,21.6-48.2,48.2-48.2s48.2,21.6,48.2,48.2
						c0,21.8-14.5,40.3-34.4,46.2"/>
					<circle class="st6" cx="175" cy="206.1" r="41.9"/>
					<circle class="st6" cx="175" cy="206.1" r="35.5"/>
					<circle class="st6" cx="175" cy="206.1" r="29.2"/>
					<circle class="st6" cx="175" cy="206.1" r="22.8"/>
					<circle class="st6" cx="175" cy="206.1" r="16.5"/>
					<circle class="st6" cx="175" cy="206.1" r="10.1"/>
				</g>
			</g>
		</g>
		<g>
			<defs>
				<circle id="SVGID_5_" cx="87.5" cy="118.6" r="66.5"/>
			</defs>
			<clipPath id="SVGID_6_">
				<use xlink:href="#SVGID_5_"  style="overflow:visible;"/>
			</clipPath>
			<pattern  id="SVGID_7_" xlink:href="#_x32__x2F_2_-_black" patternTransform="matrix(1 0 0 1 -3 -3)">
			</pattern>
			<rect x="21" y="98.3" class="st7" width="133" height="87.5"/>
		</g>
		<g>
			<defs>
				<path id="SVGID_8_" d="M175,31.1L175,31.1l0,175h175v0C350,109.4,271.6,31.1,175,31.1z"/>
			</defs>
			<clipPath id="SVGID_9_">
				<use xlink:href="#SVGID_8_"  style="overflow:visible;"/>
			</clipPath>
			<path class="st8" d="M175,31.1L175,31.1l0,175h175v0C350,109.4,271.6,31.1,175,31.1z"/>
		</g>
		<circle class="st2" cx="153.8" cy="249.7" r="3"/>
		<circle class="st9" cx="104.8" cy="256.6" r="3"/>
		<circle class="st4" cx="74.1" cy="267.2" r="3"/>
		<circle class="st4" cx="140.7" cy="285.4" r="3"/>
		<circle class="st2" cx="140.7" cy="332" r="3"/>
		<circle class="st9" cx="77.1" cy="327.9" r="3"/>
		<circle class="st2" cx="21" cy="259.6" r="3"/>
	</g>
	<g>
		<g>
			<rect x="204.9" y="78.1" class="st4" width="30.1" height="3.4"/>
			<rect x="237.8" y="78.1" class="st4" width="6.8" height="3.4"/>
			<rect x="196.3" y="86.2" class="st4" width="16" height="3.4"/>
			<rect x="263.5" y="86.2" class="st4" width="9.5" height="3.4"/>
			<rect x="202.4" y="94.3" class="st4" width="16" height="3.4"/>
			<rect x="222.5" y="94.3" class="st4" width="32.7" height="3.4"/>
			<rect x="259.5" y="94.3" class="st4" width="17.9" height="3.4"/>
			<rect x="217.1" y="102.3" class="st4" width="28.5" height="3.4"/>
			<rect x="202.4" y="110" class="st4" width="14.5" height="3.4"/>
			<rect x="237.3" y="110" class="st4" width="30.1" height="3.4"/>
			<rect x="213.5" y="134.8" class="st4" width="36.7" height="3.4"/>
			<rect x="201.8" y="134.8" class="st4" width="8.2" height="3.4"/>
			<rect x="196.8" y="118.6" class="st4" width="11.2" height="3.4"/>
			<rect x="210.6" y="118.6" class="st4" width="27" height="3.4"/>
			<rect x="228.2" y="142.6" class="st4" width="19.9" height="3.4"/>
			<rect x="195.9" y="150.9" class="st4" width="23.2" height="3.4"/>
			<rect x="251.4" y="142.6" class="st4" width="23.2" height="3.4"/>
			<rect x="240.1" y="126.7" class="st4" width="26.4" height="3.4"/>
			<rect x="226.4" y="126.7" class="st4" width="9.9" height="3.4"/>
			<rect x="269.7" y="126.7" class="st4" width="23.5" height="3.4"/>
			<rect x="222.5" y="150.9" class="st4" width="5.7" height="3.4"/>
			<rect x="278.8" y="118.6" class="st4" width="31.3" height="3.4"/>
			<rect x="241.5" y="118.6" class="st4" width="6" height="3.4"/>
		</g>
		<g>
			<rect x="202.8" y="102.3" width="11.2" height="3.4"/>
			<rect x="220.5" y="110" width="12.9" height="3.4"/>
			<rect x="202.7" y="142.6" width="22.7" height="3.4"/>
			<rect x="190" y="158.6" width="12.7" height="3.4"/>
			<rect x="190.1" y="78.1" width="11.4" height="3.4"/>
			<rect x="217.3" y="86.2" width="42" height="3.4"/>
			<rect x="249.4" y="102.3" width="7.2" height="3.4"/>
			<rect x="254.3" y="134.8" width="13.8" height="3.4"/>
			<rect x="196.7" y="126.7" width="26" height="3.4"/>
			<rect x="252.1" y="118.6" width="25.5" height="3.4"/>
		</g>
	</g>
	<g>
		<g>
			<g>
				<path class="st2" d="M227.3,142.2v-5.4c0-1.7,1.4-3,3-3h76.4c1.7,0,3,1.4,3,3v5.4H227.3z"/>
			</g>
		</g>
		<g>
			<g>
				<g>
					<path class="st2" d="M309.7,142.2v42.5c0,1.7-1.4,3-3,3h-76.4c-1.7,0-3-1.4-3-3v-42.5H309.7z"/>
					<path class="st9" d="M309.7,142.2v42.5c0,1.7-1.4,3-3,3h-76.4c-1.7,0-3-1.4-3-3v-42.5H309.7z"/>
				</g>
			</g>
		</g>
		<g>
			<path class="st4" d="M251.3,164.2l-2.2,1v0.1l2.2,1l6.9,3.3v2.9l-12.7-6.5v-1.5l12.7-6.8v3L251.3,164.2z"/>
			<path class="st4" d="M273.8,152.5l-9.3,25.2h-2.4l9.3-25.2H273.8z"/>
			<path class="st4" d="M277.1,169.7l6.9-3.3l2.3-1v-0.1l-2.3-1l-6.9-3.4l0-3l12.7,6.8v1.5l-12.7,6.5V169.7z"/>
		</g>
		<circle class="st9" cx="290.6" cy="138" r="1.8"/>
		<circle class="st9" cx="297" cy="138" r="1.8"/>
		<circle class="st9" cx="303.7" cy="138" r="1.8"/>
	</g>
</g>
<g>
	<defs>
		<circle id="SVGID_10_" cx="87.5" cy="119.7" r="66.5"/>
	</defs>
	<clipPath id="SVGID_11_">
		<use xlink:href="#SVGID_10_"  style="overflow:visible;"/>
	</clipPath>
	<g class="st10">
		<path d="M119.3,130.3H55.7c-8.2,0-14.8,6.6-14.8,14.8v56.3h93.1v-56.3C134.1,136.9,127.4,130.3,119.3,130.3z"/>
		<circle class="st2" cx="94.4" cy="89" r="20"/>
		<path class="st9" d="M103,130.3H88.6v-7.4c0-5.8,2.3-11.3,6.4-15.4l1.7-1.7c4.1-4.1,6.4-9.6,6.4-15.4v0h4v39.8L103,130.3z"/>
		<rect x="74.4" y="99.4" class="st2" width="26.5" height="30.9"/>
		<path class="st2" d="M94.4,117h16.3c2.1,0,3.7-1.7,3.7-3.7V89h-20V117z"/>
		<g>
			<polygon class="st9" points="114.4,91.2 114.4,91.2 114.4,91.2 			"/>
			<path class="st9" d="M114.4,93.2v8h2c0.8,0,1.2-1,0.7-1.6l0,0C115.4,97.9,114.4,95.6,114.4,93.2z"/>
		</g>
		<path class="st9" d="M94.4,69L94.4,69c-11-0.3-20,8.5-20,19.5v29.5l6.9-6.9c1.6-1.6,2.6-3.9,2.6-6.2V94.6c0-1.7,1.4-3.1,3.1-3.1
			l0,0c1.7,0,3.1,1.4,3.1,3.1v0.5h1.8c3,0,5.4-2.4,5.4-5.4v-2.5c0-2.2,1.8-3.9,3.9-3.9h12.3C111.1,75,103.5,69,94.4,69z"/>
		<path class="st9" d="M120.1,87.9H94.9V75.8h18.6c3.6,0,6.6,2.9,6.6,6.6V87.9z"/>
		<rect x="74.4" y="130.3" class="st9" width="26.5" height="70.9"/>
		<path class="st2" d="M91.4,143.5h-7.5c-5.2,0-9.5-4.3-9.5-9.5v-3.7h26.5v3.7C100.9,139.2,96.7,143.5,91.4,143.5z"/>
		<path class="st9" d="M74.4,130.3H60.1v-7.4c0-5.8,2.3-11.3,6.4-15.4l1.7-1.7c4.1-4.1,6.4-9.6,6.4-15.4v0h9.4v30.4
			C83.9,126.1,79.7,130.3,74.4,130.3L74.4,130.3z"/>
	</g>
</g>
<g>
	<defs>
		<ellipse id="SVGID_12_" cx="262.5" cy="293.6" rx="66.2" ry="66.5"/>
	</defs>
	<clipPath id="SVGID_13_">
		<use xlink:href="#SVGID_12_"  style="overflow:visible;"/>
	</clipPath>
	<g class="st11">
		<path class="st4" d="M248.1,309.3h32.2c2.7,0,4.9,2.2,4.9,4.9v0h-41.9v0C243.3,311.5,245.4,309.3,248.1,309.3z"/>
		<path class="st4" d="M222.5,314.2h84.1c11.7,0,21.1,9.5,21.1,21.1v33.8H201.3v-33.8C201.3,323.6,210.8,314.2,222.5,314.2z"/>
		<g>
			<ellipse class="st9" cx="257.4" cy="264.9" rx="20.3" ry="20.5"/>
			<rect x="250.8" y="314.2" class="st12" width="26.9" height="50.1"/>
			<path class="st9" d="M259.5,331h9.6c4.8,0,8.7-3.9,8.7-8.7v-46.9h-26.9v46.9C250.8,327.1,254.7,331,259.5,331z"/>
			<path class="st9" d="M257.4,299.9h-15.9c-2.5,0-4.4-2-4.4-4.5v-30.5h20.3V299.9z"/>
			<path d="M257.4,244.4c11.2,0,20.3,9.2,20.3,20.5v17.4h-2.5c-4,0-7.2-3.2-7.2-7.2v-4.5c0-1.7-1.4-3.2-3.2-3.2l0,0
				c-1.7,0-3.2,1.4-3.2,3.2v2.2h-4.9v-5.4l0,0c0-3-2.4-5.4-5.4-5.4h-0.1v-4c0-1.5-1.2-2.8-2.8-2.8h-9.2l-2-2
				c-1.4-1.4-2.2-3.3-2.2-5.3v0c0-2,1.6-3.6,3.6-3.6H257.4z"/>
			<path class="st9" d="M237.1,267.1L237.1,267.1c0,2.4-1,4.8-2.7,6.5h0c-1,1-1.6,2.4-1.6,3.9v0.9h4.3"/>
			<line class="st13" x1="237.1" y1="264.9" x2="237.1" y2="274.7"/>
			<path d="M237,269.8h23.7l0,0c0-1.2-1-2.2-2.2-2.2H237V269.8z"/>
		</g>
	</g>
</g>
</svg>
