<?xml version="1.0" encoding="iso-8859-1"?>
<!-- Generator: Adobe Illustrator 19.0.0, SVG Export Plug-In . SVG Version: 6.00 Build 0)  -->
<svg version="1.1" id="Capa_1" xmlns="http://www.w3.org/2000/svg" xmlns:xlink="http://www.w3.org/1999/xlink" x="0px" y="0px"
	 viewBox="0 0 480.123 480.123" style="enable-background:new 0 0 480.123 480.123;" xml:space="preserve">
<g>
	<g>
		<path d="M276.329,168.771c2.451-5.226,3.725-10.927,3.73-16.699c0-22.091-17.909-40-40-40c-22.091,0-40,17.909-40,40
			c0.006,5.772,1.279,11.473,3.73,16.699c-25.212,4.212-43.697,26.013-43.73,51.574v75.727c0,4.418,3.582,8,8,8h24v104
			c0,4.418,3.582,8,8,8h80c4.418,0,8-3.582,8-8v-104h24c4.418,0,8-3.582,8-8v-75.727
			C320.026,194.784,301.541,172.983,276.329,168.771z M304.06,288.072h-16v-80h-16v192h-24v-112h-16v112h-24v-192h-16v80h-16
			v-67.727c0.023-20.024,16.25-36.25,36.273-36.273h6.762c4.418,0,7.999-3.581,7.999-7.999c0-2.307-0.996-4.502-2.733-6.021
			c-5.263-4.491-8.297-11.061-8.301-17.98c0-13.255,10.745-24,24-24s24,10.745,24,24c-0.004,6.919-3.037,13.489-8.301,17.98
			c-3.325,2.908-3.663,7.961-0.755,11.287c1.519,1.737,3.714,2.733,6.021,2.733h6.762c20.024,0.023,36.25,16.25,36.273,36.273
			V288.072z"/>
	</g>
</g>
<g>
	<g>
		<path d="M330.829,17.943C302.017,6.159,271.189,0.09,240.06,0.072c-50.543-0.127-99.816,15.824-140.695,45.547l9.391,12.953
			c100.315-72.474,240.387-49.904,312.861,50.41c45.323,62.735,55.066,144.416,25.768,216.051l14.805,6.078
			C512.394,208.358,453.582,68.148,330.829,17.943z"/>
	</g>
</g>
<g>
	<g>
		<path d="M348.193,436.291c-108.48,59.639-244.767,20.046-304.406-88.434c-27.912-50.77-35.081-110.376-20.004-166.316
			l-15.445-4.172C-26.187,305.451,49.656,437.27,177.738,471.795c20.322,5.478,41.275,8.261,62.322,8.277
			c40.515,0.005,80.373-10.238,115.867-29.773L348.193,436.291z"/>
	</g>
</g>
<g>
	<g>
		<path d="M385.176,172.701c-26.227-56.483-82.841-92.62-145.117-92.629c-88.379,0.013-160.013,71.669-160,160.047
			c0.009,62.275,36.146,118.889,92.629,145.117l6.742-14.508c-72.136-33.484-103.47-119.107-69.986-191.243
			c33.484-72.136,119.107-103.47,191.243-69.986c72.136,33.484,103.47,119.107,69.986,191.243
			c-14.327,30.865-39.121,55.659-69.986,69.986l6.742,14.508C387.59,348.015,422.398,252.86,385.176,172.701z"/>
	</g>
</g>
<g>
	<g>
		<path d="M438.665,354.006c1.736-5.252,1.838-10.907,0.293-16.219c-2.791-9.244-10.199-16.363-19.546-18.785
			c-8.577-2.268-17.722-0.417-24.742,5.008c-9.147,7.021-12.856,19.057-9.246,30.008c-10.199,2.82-17.288,12.066-17.364,22.648
			v46.703c0,4.418,3.582,8,8,8h8v40.703c0,4.418,3.582,8,8,8h40c4.418,0,8-3.582,8-8v-40.703h8c4.418,0,8-3.582,8-8v-46.703
			C455.984,366.072,448.88,356.817,438.665,354.006z M440.06,415.369h-8c-4.418,0-8,3.582-8,8v40.703h-24v-40.703
			c0-4.418-3.582-8-8-8h-8v-38.703c0.128-4.295,3.705-7.677,8-7.566h8.109c4.418,0,8-3.583,7.999-8.001
			c0-2.563-1.229-4.971-3.304-6.476c-5.04-3.459-6.321-10.349-2.862-15.388c0.683-0.995,1.524-1.872,2.491-2.596
			c3.119-2.404,7.19-3.193,10.98-2.129c3.84,0.999,6.899,3.899,8.102,7.68c1.443,4.643-0.309,9.685-4.32,12.434
			c-3.577,2.594-4.374,7.596-1.78,11.173c1.505,2.075,3.913,3.304,6.476,3.304h8.109c4.295-0.111,7.871,3.271,8,7.566V415.369z"/>
	</g>
</g>
<g>
	<g>
		<path d="M70.665,36.006c1.736-5.252,1.838-10.907,0.293-16.219C68.167,10.543,60.759,3.424,51.412,1.002
			C42.835-1.27,33.688,0.581,26.67,6.01c-9.147,7.021-12.856,19.057-9.246,30.008C7.224,38.838,0.135,48.084,0.06,58.666v45.406
			c0,4.418,3.582,8,8,8h8v48c0,4.418,3.582,8,8,8h40c4.418,0,8-3.582,8-8v-48h8c4.418,0,8-3.582,8-8V58.666
			C87.984,48.072,80.88,38.817,70.665,36.006z M72.06,96.072h-8c-4.418,0-8,3.582-8,8v48h-24v-48c0-4.418-3.582-8-8-8h-8V58.666
			c0.128-4.295,3.705-7.677,8-7.566h8.109c4.418,0,8-3.583,7.999-8.001c0-2.563-1.229-4.971-3.304-6.476
			c-5.04-3.459-6.321-10.349-2.862-15.388c0.683-0.995,1.524-1.872,2.491-2.596c3.116-2.409,7.19-3.199,10.98-2.129
			c3.84,0.999,6.899,3.899,8.102,7.68c1.443,4.643-0.309,9.685-4.32,12.434c-3.577,2.594-4.374,7.596-1.78,11.173
			c1.505,2.075,3.913,3.304,6.476,3.304h8.109c4.295-0.111,7.872,3.272,8,7.566V96.072z"/>
	</g>
</g>
<g>
	<g>
		<rect x="464.06" y="0.072" width="16" height="16"/>
	</g>
</g>
<g>
	<g>
		<rect x="440.06" y="24.072" width="16" height="16"/>
	</g>
</g>
<g>
	<g>
		<rect x="24.06" y="440.072" width="16" height="16"/>
	</g>
</g>
<g>
	<g>
		<rect x="0.06" y="464.072" width="16" height="16"/>
	</g>
</g>
<g>
</g>
<g>
</g>
<g>
</g>
<g>
</g>
<g>
</g>
<g>
</g>
<g>
</g>
<g>
</g>
<g>
</g>
<g>
</g>
<g>
</g>
<g>
</g>
<g>
</g>
<g>
</g>
<g>
</g>
</svg>
