<svg xmlns="http://www.w3.org/2000/svg" viewBox="0 0 1249.84 1217.21"><defs><style>.cls-1{fill:#8ed0bd;}</style></defs><title>uchatAsset 1</title><g id="Layer_2" data-name="Layer 2"><g id="Layer_1-2" data-name="Layer 1"><path class="cls-1" d="M1248,661.31q0,249.21,0,498.42c0,21.35,3.25,45.14-22.08,54.73-24.92,9.43-41.29-7.13-57.51-23.5-69.41-70.05-139.59-139.35-208.81-209.59C947.39,969,935,964,917.58,964.08q-370.49.74-741,.28c-86.13-.05-149.87-48.42-168-127a115.74,115.74,0,0,1-3-23.64Q-.83,483.44.14,153.07C.39,71.79,71.55.8,154.84.61q465.11-1,930.21.16c95.63.36,166.64,85.1,164.75,167.47-3.76,164.28-1.12,328.7-1.12,493.07ZM912.11,390h.08c0-38.19.57-76.4-.19-114.58-.56-28.21,12.06-65.1-4.84-82.33-18.26-18.62-55.58-4.88-84.54-5.76-35.08-1.07-37.32,2.05-37.37,37.93-.16,111.91.61,223.84-.75,335.74-.83,67.64-34.89,107.32-99.91,122.53-36,8.43-72.65,7.19-108.58,2.66C527.16,680,488.89,656.61,472,607c-7.25-21.26-8.68-43.28-8.64-65.61.19-107.47-.75-215,.66-322.42.34-26.34-8.22-34.44-33.44-32.31-22.93,1.93-46.17,1-69.24.23-18.25-.63-25.19,6.68-25.1,25.12.55,118.13-1.36,236.3.94,354.39,2.11,108.61,69,188.44,172.66,211a525,525,0,0,0,219,1.66C842.51,755.89,910.16,676.28,912,560.54,912.84,503.71,912.11,446.85,912.11,390Z"/></g></g></svg>